<?xml version="1.0" encoding="iso-8859-1"?>
<!-- Generator: Adobe Illustrator 16.0.0, SVG Export Plug-In . SVG Version: 6.00 Build 0)  -->
<!DOCTYPE svg PUBLIC "-//W3C//DTD SVG 1.1//EN" "http://www.w3.org/Graphics/SVG/1.1/DTD/svg11.dtd">
<svg version="1.1" id="Capa_1" xmlns="http://www.w3.org/2000/svg" xmlns:xlink="http://www.w3.org/1999/xlink" x="0px" y="0px"
	 width="439.803px" height="439.803px" viewBox="0 0 439.803 439.803" style="enable-background:new 0 0 439.803 439.803;"
	 xml:space="preserve">
<g>
	<g id="Layer_2_42_">
		<g>
			<path d="M47.168,153.874V370.37c0,5.523,4.479,10,10,10h325.465c5.523,0,10-4.477,10-10V153.874c0-5.523-4.477-10-10-10H57.168
				C51.647,143.874,47.168,148.351,47.168,153.874z M67.168,163.874h305.465V360.37H67.168V163.874z"/>
			<path d="M429.803,59.434h-55.236h-4.338V22.265c0-5.523-4.479-10-10-10h-61.32c-5.52,0-10,4.477-10,10v37.169H150.893V22.265
				c0-5.523-4.477-10-10-10h-61.32c-5.521,0-10,4.477-10,10v37.169h-4.338H10c-5.523,0-10,4.477-10,10v348.104
				c0,5.523,4.477,10,10,10h419.803c5.521,0,10-4.477,10-10V69.434C439.803,63.911,435.324,59.434,429.803,59.434z M308.908,32.265
				h41.32v27.169h-41.32V32.265z M89.573,32.265h41.32v27.169h-41.32V32.265z M419.803,407.538H20V79.434h45.234h14.338h61.32
				h158.016h61.32h14.338h45.236V407.538L419.803,407.538z"/>
			<path d="M203.332,255.478c7.586-6.255,12.533-15.119,12.533-26.476c0-15.934-10.096-34.542-38.549-34.542
				c-15.25,0-29.818,6.524-38.367,12.631c-4.494,3.21-5.535,9.456-2.326,13.95c3.211,4.493,9.455,5.534,13.951,2.325
				c5.75-4.108,16.205-8.905,26.742-8.905c12.309,0,18.549,4.894,18.549,14.542c0,13.514-16.738,17.119-24.844,17.51
				c-0.486-0.009-0.977-0.013-1.469-0.013h-12.271c-5.521,0-10,4.526-10,10.05s4.479,10,10,10h12.271
				c0.537,0,1.074-0.007,1.611-0.021c7.686,0.268,30.244,2.756,30.463,22.711c0.047,2.582-0.391,9.147-5.477,14.33
				c-4.586,4.67-11.764,7.039-21.338,7.039c-12.539,0-25.213-5.197-30.67-8.69c-4.654-2.978-10.836-1.619-13.814,3.032
				c-2.977,4.652-1.619,10.836,3.033,13.812c6.873,4.398,23.34,11.846,41.451,11.846c18.861,0,29.775-7.086,35.609-13.029
				c7.318-7.455,11.4-17.92,11.201-28.635C221.467,274.61,214.729,262.93,203.332,255.478z"/>
			<path d="M272.957,195.498c-12.098,0-22.461,7.143-29.178,20.113c-6.057,11.697-9.127,27.699-9.127,47.562
				c0,61.609,29.156,66.398,38.092,66.398c14.307,0,38.307-8.793,38.307-67.676C311.051,204.124,287.184,195.498,272.957,195.498z
				 M272.744,309.569c-10.822,0-18.092-18.646-18.092-46.397c0-32.756,9.488-47.675,18.305-47.675
				c16.33,0,18.094,32.448,18.094,46.399C291.051,273.08,289.73,309.569,272.744,309.569z"/>
		</g>
	</g>
</g>
<g>
</g>
<g>
</g>
<g>
</g>
<g>
</g>
<g>
</g>
<g>
</g>
<g>
</g>
<g>
</g>
<g>
</g>
<g>
</g>
<g>
</g>
<g>
</g>
<g>
</g>
<g>
</g>
<g>
</g>
</svg>
